<svg width="72" height="72" viewBox="0 0 72 72" fill="none" xmlns="http://www.w3.org/2000/svg">
<rect width="72" height="72" fill="url(#paint0_linear)" style="mix-blend-mode:multiply"/>
<path d="M49.2988 49.5078C47.9805 51.0866 46.1169 52.3154 43.708 53.1943C41.2992 54.057 38.6299 54.4883 35.7002 54.4883C32.624 54.4883 29.9222 53.821 27.5947 52.4863C25.2835 51.1354 23.4932 49.1823 22.2236 46.627C20.9704 44.0716 20.3275 41.0687 20.2949 37.6182V35.2012C20.2949 31.653 20.889 28.585 22.0771 25.9971C23.2816 23.3929 25.0068 21.4072 27.2529 20.04C29.5153 18.6566 32.1602 17.9648 35.1875 17.9648C39.403 17.9648 42.6989 18.974 45.0752 20.9922C47.4515 22.9941 48.8594 25.9157 49.2988 29.7568H42.1699C41.8444 27.7223 41.1201 26.2331 39.9971 25.2891C38.8903 24.3451 37.3604 23.873 35.4072 23.873C32.917 23.873 31.0208 24.8089 29.7188 26.6807C28.4167 28.5524 27.7575 31.3356 27.7412 35.0303V37.3008C27.7412 41.028 28.4492 43.8438 29.8652 45.748C31.2812 47.6523 33.3564 48.6045 36.0908 48.6045C38.8415 48.6045 40.8027 48.0186 41.9746 46.8467V40.7188H35.3096V35.3232H49.2988V49.5078Z" fill="white"/>
<defs>
<linearGradient id="paint0_linear" x1="69" y1="-5" x2="-2.94298e-06" y2="85" gradientUnits="userSpaceOnUse">
<stop stop-color="#7135D2"/>
<stop offset="1" stop-color="#1BA7C6"/>
</linearGradient>
</defs>
</svg>
