<svg width="439" height="608" viewBox="0 0 439 608" fill="none" xmlns="http://www.w3.org/2000/svg">
<rect width="439" height="608" fill="#222326"/>
<path d="M193.727 359.922C193.987 344.427 195.745 332.188 199 323.203C202.255 314.219 208.896 304.258 218.922 293.32L244.508 266.953C255.445 254.583 260.914 241.302 260.914 227.109C260.914 213.438 257.333 202.76 250.172 195.078C243.01 187.266 232.594 183.359 218.922 183.359C205.641 183.359 194.964 186.875 186.891 193.906C178.818 200.938 174.781 210.378 174.781 222.227H138.648C138.909 201.133 146.396 184.141 161.109 171.25C175.953 158.229 195.224 151.719 218.922 151.719C243.531 151.719 262.672 158.359 276.344 171.641C290.146 184.792 297.047 202.891 297.047 225.938C297.047 248.724 286.5 271.185 265.406 293.32L244.117 314.414C234.612 324.961 229.859 340.13 229.859 359.922H193.727ZM192.164 421.836C192.164 415.977 193.922 411.094 197.438 407.188C201.083 403.151 206.422 401.133 213.453 401.133C220.484 401.133 225.823 403.151 229.469 407.188C233.115 411.094 234.938 415.977 234.938 421.836C234.938 427.695 233.115 432.578 229.469 436.484C225.823 440.26 220.484 442.148 213.453 442.148C206.422 442.148 201.083 440.26 197.438 436.484C193.922 432.578 192.164 427.695 192.164 421.836Z" fill="#6C6F77"/>
</svg>
